# xmcd
#
# Track frame offsets:
#	150
#	14816
#	29550
#	39950
#	53429
#	67016
#	79493
#	98282
#	107928
#	122122
#	135603
#	149573
#	163298
#	177427
#	191496
#	205697
#	220258
#	233593
#	247750
#	260912
#	264666
#	277734
#	286359
#	291895
#	305729
#
# Disc length: 4160 seconds
# Revision: 1
# Processed by: cddbd v1.5.2PL0 Copyright (c) Steve Scherf et al.
# Submitted via: dBpowerAMP V12.0
#
DISCID=7e103e19
DTITLE=Lead Belly - The Definitive Leadbelly
DYEAR=2009
DGENRE=Blues
TTITLE0=Worried Blues
TTITLE1=House of the Rising Sun (In New Orleans)
TTITLE2=Blue Tail Fly
TTITLE3=Take This Hammer
TTITLE4=Stewball
TTITLE5=The Gallis Pole
TTITLE6=C.C. Rider
TTITLE7=Cotton Fields
TTITLE8=Yellow Gal
TTITLE9=Ham an' Eggs
TTITLE10=Don't You Love Your Daddy No More?
TTITLE11=Howard Hughes
TTITLE12=Medley: Looky Looky Yonder/Black Betty/Yellow
TTITLE13=Whoa Back, Buck
TTITLE14=Didn't Ol' John Cross the Water
TTITLE15=Julianne Johnson
TTITLE16=Grey Goose
TTITLE17=Red Cross Store Blues
TTITLE18=Can't You Line 'Em
TTITLE19=Swing Low, Sweet Chariot
TTITLE20=My Baby Quit Me
TTITLE21=Black Betty
TTITLE22=Bottle Up and Go
TTITLE23=De Kalb Blues
TTITLE24=Ain't Gonna Study War No More
EXTD=
EXTT0=
EXTT1=
EXTT2=
EXTT3=
EXTT4=
EXTT5=
EXTT6=
EXTT7=
EXTT8=
EXTT9=
EXTT10=
EXTT11=
EXTT12=
EXTT13=
EXTT14=
EXTT15=
EXTT16=
EXTT17=
EXTT18=
EXTT19=
EXTT20=
EXTT21=
EXTT22=
EXTT23=
EXTT24=
PLAYORDER=
